<mxfile host="app.diagrams.net" modified="2022-01-12T09:52:23.127Z" agent="5.0 (Windows NT 10.0; Win64; x64) AppleWebKit/537.36 (KHTML, like Gecko) Chrome/97.0.4692.71 Safari/537.36" etag="8RQ9cjW-Lxv6uez4qGzy" version="16.2.4" type="github">
  <diagram id="OM3lx3goNTmFPO1qKr1K" name="Page-1">
    <mxGraphModel dx="1695" dy="390" grid="1" gridSize="10" guides="1" tooltips="1" connect="1" arrows="1" fold="1" page="1" pageScale="1" pageWidth="827" pageHeight="1169" math="0" shadow="0">
      <root>
        <mxCell id="0" />
        <mxCell id="1" parent="0" />
        <mxCell id="ES-EeXoTM_ZExigbFJbH-43" value="F102: Détecter les pièges" style="rounded=0;whiteSpace=wrap;html=1;" parent="1" vertex="1">
          <mxGeometry x="90" y="270" width="120" height="60" as="geometry" />
        </mxCell>
        <mxCell id="ES-EeXoTM_ZExigbFJbH-47" value="F103: Se déplacer" style="rounded=0;whiteSpace=wrap;html=1;" parent="1" vertex="1">
          <mxGeometry x="90" y="370" width="120" height="60" as="geometry" />
        </mxCell>
        <mxCell id="ES-EeXoTM_ZExigbFJbH-50" value="F105: Désamorcer les pièges" style="rounded=0;whiteSpace=wrap;html=1;" parent="1" vertex="1">
          <mxGeometry x="90" y="560" width="120" height="60" as="geometry" />
        </mxCell>
        <mxCell id="ES-EeXoTM_ZExigbFJbH-52" value="F106: aucun calcul ou traitement sur le drone" style="rounded=0;whiteSpace=wrap;html=1;" parent="1" vertex="1">
          <mxGeometry x="90" y="660" width="120" height="60" as="geometry" />
        </mxCell>
        <mxCell id="ES-EeXoTM_ZExigbFJbH-53" style="edgeStyle=orthogonalEdgeStyle;rounded=0;orthogonalLoop=1;jettySize=auto;html=1;entryX=0;entryY=0.5;entryDx=0;entryDy=0;" parent="1" source="ES-EeXoTM_ZExigbFJbH-58" target="ES-EeXoTM_ZExigbFJbH-43" edge="1">
          <mxGeometry relative="1" as="geometry" />
        </mxCell>
        <mxCell id="ES-EeXoTM_ZExigbFJbH-54" style="edgeStyle=orthogonalEdgeStyle;rounded=0;orthogonalLoop=1;jettySize=auto;html=1;exitX=1;exitY=0.5;exitDx=0;exitDy=0;entryX=0;entryY=0.5;entryDx=0;entryDy=0;" parent="1" source="ES-EeXoTM_ZExigbFJbH-58" target="ES-EeXoTM_ZExigbFJbH-47" edge="1">
          <mxGeometry relative="1" as="geometry" />
        </mxCell>
        <mxCell id="ES-EeXoTM_ZExigbFJbH-55" style="edgeStyle=orthogonalEdgeStyle;rounded=0;orthogonalLoop=1;jettySize=auto;html=1;exitX=1;exitY=0.5;exitDx=0;exitDy=0;entryX=0;entryY=0.5;entryDx=0;entryDy=0;" parent="1" source="ES-EeXoTM_ZExigbFJbH-58" target="ES-EeXoTM_ZExigbFJbH-50" edge="1">
          <mxGeometry relative="1" as="geometry" />
        </mxCell>
        <mxCell id="ES-EeXoTM_ZExigbFJbH-56" style="edgeStyle=orthogonalEdgeStyle;rounded=0;orthogonalLoop=1;jettySize=auto;html=1;entryX=0.002;entryY=0.617;entryDx=0;entryDy=0;entryPerimeter=0;" parent="1" source="ES-EeXoTM_ZExigbFJbH-58" target="ES-EeXoTM_ZExigbFJbH-52" edge="1">
          <mxGeometry relative="1" as="geometry" />
        </mxCell>
        <mxCell id="ES-EeXoTM_ZExigbFJbH-57" style="edgeStyle=orthogonalEdgeStyle;rounded=0;orthogonalLoop=1;jettySize=auto;html=1;exitX=1;exitY=0.5;exitDx=0;exitDy=0;entryX=0;entryY=0.5;entryDx=0;entryDy=0;fontColor=#000000;" parent="1" source="ES-EeXoTM_ZExigbFJbH-58" target="ES-EeXoTM_ZExigbFJbH-98" edge="1">
          <mxGeometry relative="1" as="geometry" />
        </mxCell>
        <mxCell id="ES-EeXoTM_ZExigbFJbH-112" style="edgeStyle=orthogonalEdgeStyle;rounded=0;orthogonalLoop=1;jettySize=auto;html=1;exitX=1;exitY=0.5;exitDx=0;exitDy=0;entryX=0;entryY=0.5;entryDx=0;entryDy=0;" parent="1" source="ES-EeXoTM_ZExigbFJbH-58" target="ES-EeXoTM_ZExigbFJbH-111" edge="1">
          <mxGeometry relative="1" as="geometry" />
        </mxCell>
        <mxCell id="ES-EeXoTM_ZExigbFJbH-132" style="edgeStyle=orthogonalEdgeStyle;rounded=0;orthogonalLoop=1;jettySize=auto;html=1;exitX=1;exitY=0.5;exitDx=0;exitDy=0;entryX=0;entryY=0.5;entryDx=0;entryDy=0;" parent="1" source="ES-EeXoTM_ZExigbFJbH-58" target="ES-EeXoTM_ZExigbFJbH-131" edge="1">
          <mxGeometry relative="1" as="geometry" />
        </mxCell>
        <mxCell id="ES-EeXoTM_ZExigbFJbH-58" value="F100:Drone Anafi" style="rounded=0;whiteSpace=wrap;html=1;" parent="1" vertex="1">
          <mxGeometry x="-100" y="310" width="80" height="60" as="geometry" />
        </mxCell>
        <mxCell id="ES-EeXoTM_ZExigbFJbH-98" value="&lt;font color=&quot;#000000&quot;&gt;F104: lire les QR Code&lt;/font&gt;" style="rounded=0;whiteSpace=wrap;html=1;labelBackgroundColor=none;fontColor=#0000FF;strokeColor=#000000;fillColor=default;" parent="1" vertex="1">
          <mxGeometry x="90" y="460" width="120" height="60" as="geometry" />
        </mxCell>
        <mxCell id="ES-EeXoTM_ZExigbFJbH-111" value="F101 :Autonomie ; il doit fonctionner durant toute l&#39;expérience" style="rounded=0;whiteSpace=wrap;html=1;" parent="1" vertex="1">
          <mxGeometry x="90" y="170" width="120" height="60" as="geometry" />
        </mxCell>
        <mxCell id="ES-EeXoTM_ZExigbFJbH-131" value="F107: transmission du flux vidéo en direct" style="rounded=0;whiteSpace=wrap;html=1;" parent="1" vertex="1">
          <mxGeometry x="90" y="760" width="120" height="60" as="geometry" />
        </mxCell>
      </root>
    </mxGraphModel>
  </diagram>
</mxfile>
